<mxfile host="Electron" agent="Mozilla/5.0 (Windows NT 10.0; Win64; x64) AppleWebKit/537.36 (KHTML, like Gecko) draw.io/27.0.9 Chrome/134.0.6998.205 Electron/35.4.0 Safari/537.36" version="27.0.9">
  <diagram name="Page-1" id="XDL6DaQn7Q6eYwTWx2Pz">
    <mxGraphModel dx="2066" dy="1201" grid="1" gridSize="10" guides="1" tooltips="1" connect="1" arrows="1" fold="1" page="1" pageScale="1" pageWidth="850" pageHeight="1100" math="0" shadow="0">
      <root>
        <mxCell id="0" />
        <mxCell id="1" parent="0" />
        <mxCell id="zNq9fSMBP6D47EnZEb66-32" style="edgeStyle=orthogonalEdgeStyle;rounded=0;orthogonalLoop=1;jettySize=auto;html=1;exitX=0.5;exitY=1;exitDx=0;exitDy=0;entryX=0.5;entryY=0;entryDx=0;entryDy=0;" edge="1" parent="1" source="zNq9fSMBP6D47EnZEb66-1" target="zNq9fSMBP6D47EnZEb66-20">
          <mxGeometry relative="1" as="geometry" />
        </mxCell>
        <mxCell id="zNq9fSMBP6D47EnZEb66-1" value="W_00" style="whiteSpace=wrap;html=1;aspect=fixed;" vertex="1" parent="1">
          <mxGeometry x="30" y="120" width="80" height="80" as="geometry" />
        </mxCell>
        <mxCell id="zNq9fSMBP6D47EnZEb66-33" style="edgeStyle=orthogonalEdgeStyle;rounded=0;orthogonalLoop=1;jettySize=auto;html=1;exitX=0.5;exitY=1;exitDx=0;exitDy=0;entryX=0.5;entryY=0;entryDx=0;entryDy=0;" edge="1" parent="1" source="zNq9fSMBP6D47EnZEb66-2" target="zNq9fSMBP6D47EnZEb66-21">
          <mxGeometry relative="1" as="geometry" />
        </mxCell>
        <mxCell id="zNq9fSMBP6D47EnZEb66-2" value="W_01" style="whiteSpace=wrap;html=1;aspect=fixed;" vertex="1" parent="1">
          <mxGeometry x="110" y="120" width="80" height="80" as="geometry" />
        </mxCell>
        <mxCell id="zNq9fSMBP6D47EnZEb66-34" style="edgeStyle=orthogonalEdgeStyle;rounded=0;orthogonalLoop=1;jettySize=auto;html=1;exitX=0.5;exitY=1;exitDx=0;exitDy=0;entryX=0.5;entryY=0;entryDx=0;entryDy=0;" edge="1" parent="1" source="zNq9fSMBP6D47EnZEb66-3" target="zNq9fSMBP6D47EnZEb66-22">
          <mxGeometry relative="1" as="geometry" />
        </mxCell>
        <mxCell id="zNq9fSMBP6D47EnZEb66-3" value="W_02" style="whiteSpace=wrap;html=1;aspect=fixed;" vertex="1" parent="1">
          <mxGeometry x="190" y="120" width="80" height="80" as="geometry" />
        </mxCell>
        <mxCell id="zNq9fSMBP6D47EnZEb66-35" style="edgeStyle=orthogonalEdgeStyle;rounded=0;orthogonalLoop=1;jettySize=auto;html=1;exitX=0.5;exitY=1;exitDx=0;exitDy=0;entryX=0.5;entryY=0;entryDx=0;entryDy=0;" edge="1" parent="1" source="zNq9fSMBP6D47EnZEb66-4" target="zNq9fSMBP6D47EnZEb66-23">
          <mxGeometry relative="1" as="geometry" />
        </mxCell>
        <mxCell id="zNq9fSMBP6D47EnZEb66-4" value="W_10" style="whiteSpace=wrap;html=1;aspect=fixed;" vertex="1" parent="1">
          <mxGeometry x="270" y="120" width="80" height="80" as="geometry" />
        </mxCell>
        <mxCell id="zNq9fSMBP6D47EnZEb66-36" style="edgeStyle=orthogonalEdgeStyle;rounded=0;orthogonalLoop=1;jettySize=auto;html=1;exitX=0.5;exitY=1;exitDx=0;exitDy=0;entryX=0.5;entryY=0;entryDx=0;entryDy=0;" edge="1" parent="1" source="zNq9fSMBP6D47EnZEb66-5" target="zNq9fSMBP6D47EnZEb66-24">
          <mxGeometry relative="1" as="geometry" />
        </mxCell>
        <mxCell id="zNq9fSMBP6D47EnZEb66-5" value="W_11" style="whiteSpace=wrap;html=1;aspect=fixed;" vertex="1" parent="1">
          <mxGeometry x="350" y="120" width="80" height="80" as="geometry" />
        </mxCell>
        <mxCell id="zNq9fSMBP6D47EnZEb66-37" style="edgeStyle=orthogonalEdgeStyle;rounded=0;orthogonalLoop=1;jettySize=auto;html=1;exitX=0.5;exitY=1;exitDx=0;exitDy=0;entryX=0.5;entryY=0;entryDx=0;entryDy=0;" edge="1" parent="1" source="zNq9fSMBP6D47EnZEb66-6" target="zNq9fSMBP6D47EnZEb66-25">
          <mxGeometry relative="1" as="geometry" />
        </mxCell>
        <mxCell id="zNq9fSMBP6D47EnZEb66-6" value="W_12" style="whiteSpace=wrap;html=1;aspect=fixed;" vertex="1" parent="1">
          <mxGeometry x="430" y="120" width="80" height="80" as="geometry" />
        </mxCell>
        <mxCell id="zNq9fSMBP6D47EnZEb66-38" style="edgeStyle=orthogonalEdgeStyle;rounded=0;orthogonalLoop=1;jettySize=auto;html=1;exitX=0.5;exitY=1;exitDx=0;exitDy=0;entryX=0.5;entryY=0;entryDx=0;entryDy=0;" edge="1" parent="1" source="zNq9fSMBP6D47EnZEb66-7" target="zNq9fSMBP6D47EnZEb66-26">
          <mxGeometry relative="1" as="geometry" />
        </mxCell>
        <mxCell id="zNq9fSMBP6D47EnZEb66-7" value="W_20" style="whiteSpace=wrap;html=1;aspect=fixed;" vertex="1" parent="1">
          <mxGeometry x="510" y="120" width="80" height="80" as="geometry" />
        </mxCell>
        <mxCell id="zNq9fSMBP6D47EnZEb66-39" style="edgeStyle=orthogonalEdgeStyle;rounded=0;orthogonalLoop=1;jettySize=auto;html=1;exitX=0.5;exitY=1;exitDx=0;exitDy=0;entryX=0.5;entryY=0;entryDx=0;entryDy=0;" edge="1" parent="1" source="zNq9fSMBP6D47EnZEb66-8" target="zNq9fSMBP6D47EnZEb66-29">
          <mxGeometry relative="1" as="geometry" />
        </mxCell>
        <mxCell id="zNq9fSMBP6D47EnZEb66-8" value="W_21" style="whiteSpace=wrap;html=1;aspect=fixed;" vertex="1" parent="1">
          <mxGeometry x="590" y="120" width="80" height="80" as="geometry" />
        </mxCell>
        <mxCell id="zNq9fSMBP6D47EnZEb66-40" style="edgeStyle=orthogonalEdgeStyle;rounded=0;orthogonalLoop=1;jettySize=auto;html=1;exitX=0.5;exitY=1;exitDx=0;exitDy=0;entryX=0.5;entryY=0;entryDx=0;entryDy=0;" edge="1" parent="1" source="zNq9fSMBP6D47EnZEb66-9" target="zNq9fSMBP6D47EnZEb66-28">
          <mxGeometry relative="1" as="geometry" />
        </mxCell>
        <mxCell id="zNq9fSMBP6D47EnZEb66-9" value="W_22" style="whiteSpace=wrap;html=1;aspect=fixed;" vertex="1" parent="1">
          <mxGeometry x="670" y="120" width="80" height="80" as="geometry" />
        </mxCell>
        <mxCell id="zNq9fSMBP6D47EnZEb66-41" style="edgeStyle=orthogonalEdgeStyle;rounded=0;orthogonalLoop=1;jettySize=auto;html=1;exitX=0;exitY=0.5;exitDx=0;exitDy=0;entryX=0.75;entryY=0;entryDx=0;entryDy=0;fillColor=#dae8fc;strokeColor=#6c8ebf;" edge="1" parent="1" source="zNq9fSMBP6D47EnZEb66-15" target="zNq9fSMBP6D47EnZEb66-20">
          <mxGeometry relative="1" as="geometry" />
        </mxCell>
        <mxCell id="zNq9fSMBP6D47EnZEb66-43" style="edgeStyle=orthogonalEdgeStyle;rounded=0;orthogonalLoop=1;jettySize=auto;html=1;exitX=0;exitY=0.5;exitDx=0;exitDy=0;entryX=0.75;entryY=0;entryDx=0;entryDy=0;fillColor=#dae8fc;strokeColor=#6c8ebf;" edge="1" parent="1" source="zNq9fSMBP6D47EnZEb66-15" target="zNq9fSMBP6D47EnZEb66-23">
          <mxGeometry relative="1" as="geometry" />
        </mxCell>
        <mxCell id="zNq9fSMBP6D47EnZEb66-44" style="edgeStyle=orthogonalEdgeStyle;rounded=0;orthogonalLoop=1;jettySize=auto;html=1;exitX=0;exitY=0.5;exitDx=0;exitDy=0;entryX=0.75;entryY=0;entryDx=0;entryDy=0;fillColor=#dae8fc;strokeColor=#6c8ebf;" edge="1" parent="1" source="zNq9fSMBP6D47EnZEb66-15" target="zNq9fSMBP6D47EnZEb66-26">
          <mxGeometry relative="1" as="geometry" />
        </mxCell>
        <mxCell id="zNq9fSMBP6D47EnZEb66-15" value="S_0" style="rounded=0;whiteSpace=wrap;html=1;" vertex="1" parent="1">
          <mxGeometry x="780" y="220" width="40" height="80" as="geometry" />
        </mxCell>
        <mxCell id="zNq9fSMBP6D47EnZEb66-48" style="edgeStyle=orthogonalEdgeStyle;rounded=0;orthogonalLoop=1;jettySize=auto;html=1;exitX=0;exitY=0.5;exitDx=0;exitDy=0;entryX=0.75;entryY=0;entryDx=0;entryDy=0;fillColor=#fff2cc;strokeColor=#d6b656;" edge="1" parent="1" source="zNq9fSMBP6D47EnZEb66-16" target="zNq9fSMBP6D47EnZEb66-21">
          <mxGeometry relative="1" as="geometry" />
        </mxCell>
        <mxCell id="zNq9fSMBP6D47EnZEb66-49" style="edgeStyle=orthogonalEdgeStyle;rounded=0;orthogonalLoop=1;jettySize=auto;html=1;exitX=0;exitY=0.5;exitDx=0;exitDy=0;entryX=0.75;entryY=0;entryDx=0;entryDy=0;fillColor=#fff2cc;strokeColor=#d6b656;" edge="1" parent="1" source="zNq9fSMBP6D47EnZEb66-16" target="zNq9fSMBP6D47EnZEb66-24">
          <mxGeometry relative="1" as="geometry" />
        </mxCell>
        <mxCell id="zNq9fSMBP6D47EnZEb66-50" style="edgeStyle=orthogonalEdgeStyle;rounded=0;orthogonalLoop=1;jettySize=auto;html=1;exitX=0;exitY=0.5;exitDx=0;exitDy=0;entryX=0.75;entryY=0;entryDx=0;entryDy=0;fillColor=#fff2cc;strokeColor=#d6b656;" edge="1" parent="1" source="zNq9fSMBP6D47EnZEb66-16" target="zNq9fSMBP6D47EnZEb66-29">
          <mxGeometry relative="1" as="geometry" />
        </mxCell>
        <mxCell id="zNq9fSMBP6D47EnZEb66-16" value="S_1" style="rounded=0;whiteSpace=wrap;html=1;" vertex="1" parent="1">
          <mxGeometry x="780" y="300" width="40" height="80" as="geometry" />
        </mxCell>
        <mxCell id="zNq9fSMBP6D47EnZEb66-51" style="edgeStyle=orthogonalEdgeStyle;rounded=0;orthogonalLoop=1;jettySize=auto;html=1;exitX=0;exitY=0.5;exitDx=0;exitDy=0;entryX=0.75;entryY=0;entryDx=0;entryDy=0;fillColor=#d5e8d4;strokeColor=#82b366;" edge="1" parent="1" source="zNq9fSMBP6D47EnZEb66-17" target="zNq9fSMBP6D47EnZEb66-22">
          <mxGeometry relative="1" as="geometry" />
        </mxCell>
        <mxCell id="zNq9fSMBP6D47EnZEb66-52" style="edgeStyle=orthogonalEdgeStyle;rounded=0;orthogonalLoop=1;jettySize=auto;html=1;exitX=0;exitY=0.5;exitDx=0;exitDy=0;entryX=0.75;entryY=0;entryDx=0;entryDy=0;fillColor=#d5e8d4;strokeColor=#82b366;" edge="1" parent="1" source="zNq9fSMBP6D47EnZEb66-17" target="zNq9fSMBP6D47EnZEb66-25">
          <mxGeometry relative="1" as="geometry" />
        </mxCell>
        <mxCell id="zNq9fSMBP6D47EnZEb66-53" style="edgeStyle=orthogonalEdgeStyle;rounded=0;orthogonalLoop=1;jettySize=auto;html=1;exitX=0;exitY=0.5;exitDx=0;exitDy=0;entryX=0.75;entryY=0;entryDx=0;entryDy=0;fillColor=#d5e8d4;strokeColor=#82b366;" edge="1" parent="1" source="zNq9fSMBP6D47EnZEb66-17" target="zNq9fSMBP6D47EnZEb66-28">
          <mxGeometry relative="1" as="geometry" />
        </mxCell>
        <mxCell id="zNq9fSMBP6D47EnZEb66-17" value="S_2" style="rounded=0;whiteSpace=wrap;html=1;" vertex="1" parent="1">
          <mxGeometry x="780" y="380" width="40" height="80" as="geometry" />
        </mxCell>
        <mxCell id="zNq9fSMBP6D47EnZEb66-57" style="edgeStyle=orthogonalEdgeStyle;rounded=0;orthogonalLoop=1;jettySize=auto;html=1;exitX=0.5;exitY=1;exitDx=0;exitDy=0;entryX=0.25;entryY=0;entryDx=0;entryDy=0;" edge="1" parent="1" source="zNq9fSMBP6D47EnZEb66-20" target="zNq9fSMBP6D47EnZEb66-56">
          <mxGeometry relative="1" as="geometry" />
        </mxCell>
        <mxCell id="zNq9fSMBP6D47EnZEb66-20" value="SMM_0" style="whiteSpace=wrap;html=1;aspect=fixed;" vertex="1" parent="1">
          <mxGeometry x="30" y="470" width="80" height="80" as="geometry" />
        </mxCell>
        <mxCell id="zNq9fSMBP6D47EnZEb66-58" style="edgeStyle=orthogonalEdgeStyle;rounded=0;orthogonalLoop=1;jettySize=auto;html=1;exitX=0.5;exitY=1;exitDx=0;exitDy=0;entryX=0.5;entryY=0;entryDx=0;entryDy=0;" edge="1" parent="1" source="zNq9fSMBP6D47EnZEb66-21" target="zNq9fSMBP6D47EnZEb66-56">
          <mxGeometry relative="1" as="geometry" />
        </mxCell>
        <mxCell id="zNq9fSMBP6D47EnZEb66-21" value="SMM_1" style="whiteSpace=wrap;html=1;aspect=fixed;" vertex="1" parent="1">
          <mxGeometry x="110" y="470" width="80" height="80" as="geometry" />
        </mxCell>
        <mxCell id="zNq9fSMBP6D47EnZEb66-59" style="edgeStyle=orthogonalEdgeStyle;rounded=0;orthogonalLoop=1;jettySize=auto;html=1;exitX=0.5;exitY=1;exitDx=0;exitDy=0;entryX=0.75;entryY=0;entryDx=0;entryDy=0;" edge="1" parent="1" source="zNq9fSMBP6D47EnZEb66-22" target="zNq9fSMBP6D47EnZEb66-56">
          <mxGeometry relative="1" as="geometry" />
        </mxCell>
        <mxCell id="zNq9fSMBP6D47EnZEb66-22" value="SMM_2" style="whiteSpace=wrap;html=1;aspect=fixed;" vertex="1" parent="1">
          <mxGeometry x="190" y="470" width="80" height="80" as="geometry" />
        </mxCell>
        <mxCell id="zNq9fSMBP6D47EnZEb66-63" style="edgeStyle=orthogonalEdgeStyle;rounded=0;orthogonalLoop=1;jettySize=auto;html=1;exitX=0.5;exitY=1;exitDx=0;exitDy=0;entryX=0.25;entryY=0;entryDx=0;entryDy=0;" edge="1" parent="1" source="zNq9fSMBP6D47EnZEb66-23" target="zNq9fSMBP6D47EnZEb66-60">
          <mxGeometry relative="1" as="geometry" />
        </mxCell>
        <mxCell id="zNq9fSMBP6D47EnZEb66-23" value="SMM_3" style="whiteSpace=wrap;html=1;aspect=fixed;" vertex="1" parent="1">
          <mxGeometry x="270" y="470" width="80" height="80" as="geometry" />
        </mxCell>
        <mxCell id="zNq9fSMBP6D47EnZEb66-62" style="edgeStyle=orthogonalEdgeStyle;rounded=0;orthogonalLoop=1;jettySize=auto;html=1;exitX=0.5;exitY=1;exitDx=0;exitDy=0;entryX=0.5;entryY=0;entryDx=0;entryDy=0;" edge="1" parent="1" source="zNq9fSMBP6D47EnZEb66-24" target="zNq9fSMBP6D47EnZEb66-60">
          <mxGeometry relative="1" as="geometry" />
        </mxCell>
        <mxCell id="zNq9fSMBP6D47EnZEb66-24" value="SMM_4" style="whiteSpace=wrap;html=1;aspect=fixed;" vertex="1" parent="1">
          <mxGeometry x="350" y="470" width="80" height="80" as="geometry" />
        </mxCell>
        <mxCell id="zNq9fSMBP6D47EnZEb66-64" style="edgeStyle=orthogonalEdgeStyle;rounded=0;orthogonalLoop=1;jettySize=auto;html=1;exitX=0.5;exitY=1;exitDx=0;exitDy=0;entryX=0.75;entryY=0;entryDx=0;entryDy=0;" edge="1" parent="1" source="zNq9fSMBP6D47EnZEb66-25" target="zNq9fSMBP6D47EnZEb66-60">
          <mxGeometry relative="1" as="geometry" />
        </mxCell>
        <mxCell id="zNq9fSMBP6D47EnZEb66-25" value="SMM_5" style="whiteSpace=wrap;html=1;aspect=fixed;" vertex="1" parent="1">
          <mxGeometry x="430" y="470" width="80" height="80" as="geometry" />
        </mxCell>
        <mxCell id="zNq9fSMBP6D47EnZEb66-66" style="edgeStyle=orthogonalEdgeStyle;rounded=0;orthogonalLoop=1;jettySize=auto;html=1;exitX=0.5;exitY=1;exitDx=0;exitDy=0;entryX=0.25;entryY=0;entryDx=0;entryDy=0;" edge="1" parent="1" source="zNq9fSMBP6D47EnZEb66-26" target="zNq9fSMBP6D47EnZEb66-61">
          <mxGeometry relative="1" as="geometry" />
        </mxCell>
        <mxCell id="zNq9fSMBP6D47EnZEb66-26" value="SMM_6" style="whiteSpace=wrap;html=1;aspect=fixed;" vertex="1" parent="1">
          <mxGeometry x="510" y="470" width="80" height="80" as="geometry" />
        </mxCell>
        <mxCell id="zNq9fSMBP6D47EnZEb66-67" style="edgeStyle=orthogonalEdgeStyle;rounded=0;orthogonalLoop=1;jettySize=auto;html=1;exitX=0.5;exitY=1;exitDx=0;exitDy=0;entryX=0.75;entryY=0;entryDx=0;entryDy=0;" edge="1" parent="1" source="zNq9fSMBP6D47EnZEb66-28" target="zNq9fSMBP6D47EnZEb66-61">
          <mxGeometry relative="1" as="geometry" />
        </mxCell>
        <mxCell id="zNq9fSMBP6D47EnZEb66-28" value="SMM_8" style="whiteSpace=wrap;html=1;aspect=fixed;" vertex="1" parent="1">
          <mxGeometry x="670" y="470" width="80" height="80" as="geometry" />
        </mxCell>
        <mxCell id="zNq9fSMBP6D47EnZEb66-65" style="edgeStyle=orthogonalEdgeStyle;rounded=0;orthogonalLoop=1;jettySize=auto;html=1;exitX=0.5;exitY=1;exitDx=0;exitDy=0;entryX=0.5;entryY=0;entryDx=0;entryDy=0;" edge="1" parent="1" source="zNq9fSMBP6D47EnZEb66-29" target="zNq9fSMBP6D47EnZEb66-61">
          <mxGeometry relative="1" as="geometry" />
        </mxCell>
        <mxCell id="zNq9fSMBP6D47EnZEb66-29" value="SMM_7" style="whiteSpace=wrap;html=1;aspect=fixed;" vertex="1" parent="1">
          <mxGeometry x="590" y="470" width="80" height="80" as="geometry" />
        </mxCell>
        <mxCell id="zNq9fSMBP6D47EnZEb66-70" style="edgeStyle=orthogonalEdgeStyle;rounded=0;orthogonalLoop=1;jettySize=auto;html=1;exitX=0.5;exitY=1;exitDx=0;exitDy=0;entryX=0.5;entryY=0;entryDx=0;entryDy=0;" edge="1" parent="1" source="zNq9fSMBP6D47EnZEb66-56" target="zNq9fSMBP6D47EnZEb66-69">
          <mxGeometry relative="1" as="geometry" />
        </mxCell>
        <mxCell id="zNq9fSMBP6D47EnZEb66-56" value="Add" style="rounded=0;whiteSpace=wrap;html=1;" vertex="1" parent="1">
          <mxGeometry x="100" y="650" width="100" height="30" as="geometry" />
        </mxCell>
        <mxCell id="zNq9fSMBP6D47EnZEb66-73" style="edgeStyle=orthogonalEdgeStyle;rounded=0;orthogonalLoop=1;jettySize=auto;html=1;exitX=0.5;exitY=1;exitDx=0;exitDy=0;entryX=0.5;entryY=0;entryDx=0;entryDy=0;" edge="1" parent="1" source="zNq9fSMBP6D47EnZEb66-60" target="zNq9fSMBP6D47EnZEb66-71">
          <mxGeometry relative="1" as="geometry" />
        </mxCell>
        <mxCell id="zNq9fSMBP6D47EnZEb66-60" value="Add" style="rounded=0;whiteSpace=wrap;html=1;" vertex="1" parent="1">
          <mxGeometry x="340" y="650" width="100" height="30" as="geometry" />
        </mxCell>
        <mxCell id="zNq9fSMBP6D47EnZEb66-74" style="edgeStyle=orthogonalEdgeStyle;rounded=0;orthogonalLoop=1;jettySize=auto;html=1;exitX=0.5;exitY=1;exitDx=0;exitDy=0;entryX=0.5;entryY=0;entryDx=0;entryDy=0;" edge="1" parent="1" source="zNq9fSMBP6D47EnZEb66-61" target="zNq9fSMBP6D47EnZEb66-72">
          <mxGeometry relative="1" as="geometry" />
        </mxCell>
        <mxCell id="zNq9fSMBP6D47EnZEb66-61" value="Add" style="rounded=0;whiteSpace=wrap;html=1;" vertex="1" parent="1">
          <mxGeometry x="580" y="650" width="100" height="30" as="geometry" />
        </mxCell>
        <mxCell id="zNq9fSMBP6D47EnZEb66-79" style="edgeStyle=orthogonalEdgeStyle;rounded=0;orthogonalLoop=1;jettySize=auto;html=1;exitX=0.5;exitY=1;exitDx=0;exitDy=0;entryX=0.25;entryY=0;entryDx=0;entryDy=0;" edge="1" parent="1" source="zNq9fSMBP6D47EnZEb66-69" target="zNq9fSMBP6D47EnZEb66-75">
          <mxGeometry relative="1" as="geometry" />
        </mxCell>
        <mxCell id="zNq9fSMBP6D47EnZEb66-69" value="C_0" style="rounded=0;whiteSpace=wrap;html=1;" vertex="1" parent="1">
          <mxGeometry x="100" y="730" width="100" height="30" as="geometry" />
        </mxCell>
        <mxCell id="zNq9fSMBP6D47EnZEb66-83" style="edgeStyle=orthogonalEdgeStyle;rounded=0;orthogonalLoop=1;jettySize=auto;html=1;exitX=0.5;exitY=1;exitDx=0;exitDy=0;entryX=0.25;entryY=0;entryDx=0;entryDy=0;" edge="1" parent="1" source="zNq9fSMBP6D47EnZEb66-71" target="zNq9fSMBP6D47EnZEb66-81">
          <mxGeometry relative="1" as="geometry" />
        </mxCell>
        <mxCell id="zNq9fSMBP6D47EnZEb66-71" value="C_1" style="rounded=0;whiteSpace=wrap;html=1;" vertex="1" parent="1">
          <mxGeometry x="340" y="730" width="100" height="30" as="geometry" />
        </mxCell>
        <mxCell id="zNq9fSMBP6D47EnZEb66-85" style="edgeStyle=orthogonalEdgeStyle;rounded=0;orthogonalLoop=1;jettySize=auto;html=1;exitX=0.5;exitY=1;exitDx=0;exitDy=0;entryX=0.25;entryY=0;entryDx=0;entryDy=0;" edge="1" parent="1" source="zNq9fSMBP6D47EnZEb66-72" target="zNq9fSMBP6D47EnZEb66-82">
          <mxGeometry relative="1" as="geometry" />
        </mxCell>
        <mxCell id="zNq9fSMBP6D47EnZEb66-72" value="C_2" style="rounded=0;whiteSpace=wrap;html=1;" vertex="1" parent="1">
          <mxGeometry x="580" y="730" width="100" height="30" as="geometry" />
        </mxCell>
        <mxCell id="zNq9fSMBP6D47EnZEb66-108" style="edgeStyle=orthogonalEdgeStyle;rounded=0;orthogonalLoop=1;jettySize=auto;html=1;exitX=0.5;exitY=1;exitDx=0;exitDy=0;entryX=0.5;entryY=0;entryDx=0;entryDy=0;" edge="1" parent="1" source="zNq9fSMBP6D47EnZEb66-75" target="zNq9fSMBP6D47EnZEb66-87">
          <mxGeometry relative="1" as="geometry" />
        </mxCell>
        <mxCell id="zNq9fSMBP6D47EnZEb66-75" value="Add" style="rounded=0;whiteSpace=wrap;html=1;" vertex="1" parent="1">
          <mxGeometry x="160" y="910" width="100" height="30" as="geometry" />
        </mxCell>
        <mxCell id="zNq9fSMBP6D47EnZEb66-96" style="edgeStyle=orthogonalEdgeStyle;rounded=0;orthogonalLoop=1;jettySize=auto;html=1;exitX=0.5;exitY=1;exitDx=0;exitDy=0;entryX=0.5;entryY=0;entryDx=0;entryDy=0;" edge="1" parent="1" source="zNq9fSMBP6D47EnZEb66-76" target="zNq9fSMBP6D47EnZEb66-90">
          <mxGeometry relative="1" as="geometry" />
        </mxCell>
        <mxCell id="zNq9fSMBP6D47EnZEb66-76" value="V_0[n-1]" style="rounded=0;whiteSpace=wrap;html=1;" vertex="1" parent="1">
          <mxGeometry x="220" y="730" width="100" height="30" as="geometry" />
        </mxCell>
        <mxCell id="zNq9fSMBP6D47EnZEb66-106" style="edgeStyle=orthogonalEdgeStyle;rounded=0;orthogonalLoop=1;jettySize=auto;html=1;exitX=0.5;exitY=1;exitDx=0;exitDy=0;" edge="1" parent="1" source="zNq9fSMBP6D47EnZEb66-77" target="zNq9fSMBP6D47EnZEb66-103">
          <mxGeometry relative="1" as="geometry" />
        </mxCell>
        <mxCell id="zNq9fSMBP6D47EnZEb66-77" value="V_2[n-1]" style="rounded=0;whiteSpace=wrap;html=1;" vertex="1" parent="1">
          <mxGeometry x="700" y="730" width="100" height="30" as="geometry" />
        </mxCell>
        <mxCell id="zNq9fSMBP6D47EnZEb66-107" style="edgeStyle=orthogonalEdgeStyle;rounded=0;orthogonalLoop=1;jettySize=auto;html=1;exitX=0.5;exitY=1;exitDx=0;exitDy=0;entryX=0.5;entryY=0;entryDx=0;entryDy=0;" edge="1" parent="1" source="zNq9fSMBP6D47EnZEb66-78" target="zNq9fSMBP6D47EnZEb66-97">
          <mxGeometry relative="1" as="geometry" />
        </mxCell>
        <mxCell id="zNq9fSMBP6D47EnZEb66-78" value="V_1[n-1]" style="rounded=0;whiteSpace=wrap;html=1;" vertex="1" parent="1">
          <mxGeometry x="460" y="730" width="100" height="30" as="geometry" />
        </mxCell>
        <mxCell id="zNq9fSMBP6D47EnZEb66-109" style="edgeStyle=orthogonalEdgeStyle;rounded=0;orthogonalLoop=1;jettySize=auto;html=1;exitX=0.5;exitY=1;exitDx=0;exitDy=0;entryX=0.5;entryY=0;entryDx=0;entryDy=0;" edge="1" parent="1" source="zNq9fSMBP6D47EnZEb66-81" target="zNq9fSMBP6D47EnZEb66-88">
          <mxGeometry relative="1" as="geometry" />
        </mxCell>
        <mxCell id="zNq9fSMBP6D47EnZEb66-81" value="Add" style="rounded=0;whiteSpace=wrap;html=1;" vertex="1" parent="1">
          <mxGeometry x="400" y="910" width="100" height="30" as="geometry" />
        </mxCell>
        <mxCell id="zNq9fSMBP6D47EnZEb66-110" style="edgeStyle=orthogonalEdgeStyle;rounded=0;orthogonalLoop=1;jettySize=auto;html=1;exitX=0.5;exitY=1;exitDx=0;exitDy=0;entryX=0.5;entryY=0;entryDx=0;entryDy=0;" edge="1" parent="1" source="zNq9fSMBP6D47EnZEb66-82" target="zNq9fSMBP6D47EnZEb66-89">
          <mxGeometry relative="1" as="geometry" />
        </mxCell>
        <mxCell id="zNq9fSMBP6D47EnZEb66-82" value="Add" style="rounded=0;whiteSpace=wrap;html=1;" vertex="1" parent="1">
          <mxGeometry x="640" y="910" width="100" height="30" as="geometry" />
        </mxCell>
        <mxCell id="zNq9fSMBP6D47EnZEb66-87" value="V_0[n]" style="rounded=0;whiteSpace=wrap;html=1;" vertex="1" parent="1">
          <mxGeometry x="300" y="1010" width="100" height="30" as="geometry" />
        </mxCell>
        <mxCell id="zNq9fSMBP6D47EnZEb66-88" value="V_1[n]" style="rounded=0;whiteSpace=wrap;html=1;" vertex="1" parent="1">
          <mxGeometry x="400" y="1010" width="100" height="30" as="geometry" />
        </mxCell>
        <mxCell id="zNq9fSMBP6D47EnZEb66-89" value="V_2[n]" style="rounded=0;whiteSpace=wrap;html=1;" vertex="1" parent="1">
          <mxGeometry x="500" y="1010" width="100" height="30" as="geometry" />
        </mxCell>
        <mxCell id="zNq9fSMBP6D47EnZEb66-92" style="edgeStyle=orthogonalEdgeStyle;rounded=0;orthogonalLoop=1;jettySize=auto;html=1;exitX=0.5;exitY=1;exitDx=0;exitDy=0;entryX=0.75;entryY=0;entryDx=0;entryDy=0;" edge="1" parent="1" source="zNq9fSMBP6D47EnZEb66-90" target="zNq9fSMBP6D47EnZEb66-75">
          <mxGeometry relative="1" as="geometry" />
        </mxCell>
        <mxCell id="zNq9fSMBP6D47EnZEb66-90" value="Mult" style="rounded=0;whiteSpace=wrap;html=1;" vertex="1" parent="1">
          <mxGeometry x="210" y="840" width="50" height="30" as="geometry" />
        </mxCell>
        <mxCell id="zNq9fSMBP6D47EnZEb66-95" style="edgeStyle=orthogonalEdgeStyle;rounded=0;orthogonalLoop=1;jettySize=auto;html=1;exitX=0;exitY=0.5;exitDx=0;exitDy=0;entryX=1;entryY=0.5;entryDx=0;entryDy=0;" edge="1" parent="1" source="zNq9fSMBP6D47EnZEb66-93" target="zNq9fSMBP6D47EnZEb66-90">
          <mxGeometry relative="1" as="geometry" />
        </mxCell>
        <mxCell id="zNq9fSMBP6D47EnZEb66-93" value="ALPHA" style="rounded=0;whiteSpace=wrap;html=1;" vertex="1" parent="1">
          <mxGeometry x="290" y="840" width="70" height="30" as="geometry" />
        </mxCell>
        <mxCell id="zNq9fSMBP6D47EnZEb66-98" style="edgeStyle=orthogonalEdgeStyle;rounded=0;orthogonalLoop=1;jettySize=auto;html=1;exitX=0.5;exitY=1;exitDx=0;exitDy=0;entryX=0.75;entryY=0;entryDx=0;entryDy=0;" edge="1" parent="1" source="zNq9fSMBP6D47EnZEb66-97" target="zNq9fSMBP6D47EnZEb66-81">
          <mxGeometry relative="1" as="geometry" />
        </mxCell>
        <mxCell id="zNq9fSMBP6D47EnZEb66-97" value="Mult" style="rounded=0;whiteSpace=wrap;html=1;" vertex="1" parent="1">
          <mxGeometry x="450" y="840" width="50" height="30" as="geometry" />
        </mxCell>
        <mxCell id="zNq9fSMBP6D47EnZEb66-111" style="edgeStyle=orthogonalEdgeStyle;rounded=0;orthogonalLoop=1;jettySize=auto;html=1;exitX=0;exitY=0.5;exitDx=0;exitDy=0;entryX=1;entryY=0.5;entryDx=0;entryDy=0;" edge="1" parent="1" source="zNq9fSMBP6D47EnZEb66-101" target="zNq9fSMBP6D47EnZEb66-97">
          <mxGeometry relative="1" as="geometry" />
        </mxCell>
        <mxCell id="zNq9fSMBP6D47EnZEb66-101" value="&lt;span style=&quot;font-weight: normal;&quot;&gt;ALPHA&lt;/span&gt;" style="rounded=0;whiteSpace=wrap;html=1;fontStyle=1" vertex="1" parent="1">
          <mxGeometry x="530" y="840" width="70" height="30" as="geometry" />
        </mxCell>
        <mxCell id="zNq9fSMBP6D47EnZEb66-105" style="edgeStyle=orthogonalEdgeStyle;rounded=0;orthogonalLoop=1;jettySize=auto;html=1;exitX=0;exitY=0.5;exitDx=0;exitDy=0;entryX=1;entryY=0.5;entryDx=0;entryDy=0;" edge="1" parent="1" source="zNq9fSMBP6D47EnZEb66-102" target="zNq9fSMBP6D47EnZEb66-103">
          <mxGeometry relative="1" as="geometry" />
        </mxCell>
        <mxCell id="zNq9fSMBP6D47EnZEb66-102" value="ALPHA" style="rounded=0;whiteSpace=wrap;html=1;" vertex="1" parent="1">
          <mxGeometry x="765" y="840" width="70" height="30" as="geometry" />
        </mxCell>
        <mxCell id="zNq9fSMBP6D47EnZEb66-104" style="edgeStyle=orthogonalEdgeStyle;rounded=0;orthogonalLoop=1;jettySize=auto;html=1;exitX=0.5;exitY=1;exitDx=0;exitDy=0;entryX=0.75;entryY=0;entryDx=0;entryDy=0;" edge="1" parent="1" source="zNq9fSMBP6D47EnZEb66-103" target="zNq9fSMBP6D47EnZEb66-82">
          <mxGeometry relative="1" as="geometry" />
        </mxCell>
        <mxCell id="zNq9fSMBP6D47EnZEb66-103" value="Mult" style="rounded=0;whiteSpace=wrap;html=1;" vertex="1" parent="1">
          <mxGeometry x="690" y="840" width="50" height="30" as="geometry" />
        </mxCell>
      </root>
    </mxGraphModel>
  </diagram>
</mxfile>
